<svg xmlns="http://www.w3.org/2000/svg" width="1024" height="1024" viewBox="0 0 1024 1024"><defs>
    <linearGradient id="warm-orange" x1="0" y1="0" x2="1024" y2="1024" gradientUnits="userSpaceOnUse">
      <stop stop-color="#F3B17B"/>
      <stop offset="1" stop-color="#EFA16F"/>
    </linearGradient>
  </defs><g id="background">
    <path fill="url(#warm-orange)" d="M0 0H1024V1024H0Z"/>
  </g><g transform="translate(512 512) scale(0.6464) translate(-515 -476.5)">
  <title>PetPal — a friendly wink</title>
  <desc>A cream dog wearing a bow tie winks beneath a heart speech bubble on a soft orange background.</desc>
  <defs>
    <linearGradient id="warm-orange" x1="0" y1="0" x2="1024" y2="1024" gradientUnits="userSpaceOnUse">
      <stop stop-color="#F3B17B"/>
      <stop offset="1" stop-color="#EFA16F"/>
    </linearGradient>
  </defs>
  
  <g id="foreground">
    <!-- A large social symbol survives reduction to 60 pixels. -->
    <g id="social-bubble" transform="translate(0 -64)">
      <path fill="#FFF5E7" d="M651 170H776C824 170 855 201 855 247V284C855 327 825 359 781 359H706L636 391Q624 397 629 383L640 358H651C607 358 578 326 578 284V247C578 201 607 170 651 170Z"/>
      <path fill="#EFA16F" d="M717 314C705 304 655 276 655 247C655 226 681 215 698 229L717 248L736 229C753 215 779 226 779 247C779 276 729 304 717 314Z"/>
    </g>
    <g id="body" fill="#FFF5E7">
      <path d="M359 689Q475 654 591 689C614 725 634 778 639 830Q475 864 311 830C316 778 336 725 359 689Z"/>
    </g>
    <g id="ears" fill="#654435">
      <path d="M295 341C244 317 216 347 194 414C176 469 165 563 191 605C208 634 244 634 268 608L323 453Z"/>
      <path d="M647 341C698 317 726 347 748 414C766 469 777 563 751 605C734 634 698 634 674 608L619 453Z"/>
    </g>
    <g id="head">
      <path fill="#FFF5E7" d="M471 302C338 302 251 383 247 510C242 640 328 733 471 733C614 733 700 640 695 510C691 383 604 302 471 302Z"/>
    </g>
    <g id="expression" fill="#654435">
      <ellipse cx="379" cy="495" rx="25" ry="30"/>
      <path d="M535 498Q564 466 593 496" fill="none" stroke="#654435" stroke-width="24" stroke-linecap="round"/>
      <path d="M441 557Q471 548 501 557C525 565 498 598 471 601C444 598 417 565 441 557Z"/>
      <path d="M471 601V617M416 621Q471 675 526 621" fill="none" stroke="#654435" stroke-width="20" stroke-linecap="round" stroke-linejoin="round"/>
    </g>
    <g id="bow-tie" fill="#654435">
      <path d="M459 771L401 744Q387 738 387 755V807Q387 824 401 818L459 791Z"/>
      <path d="M483 771L541 744Q555 738 555 755V807Q555 824 541 818L483 791Z"/>
      <rect x="454" y="762" width="34" height="39" rx="12"/>
    </g>
  </g>
</g><circle cx="512" cy="512" r="312.889" fill="none" stroke="#654435" stroke-width="3" stroke-dasharray="10 8"/><rect x="170.667" y="170.667" width="682.666" height="682.666" fill="none" stroke="#654435" stroke-width="2" stroke-dasharray="4 8"/></svg>